<svg height="300px" width="300px" fill="#000000" xmlns="http://www.w3.org/2000/svg" xmlns:xlink="http://www.w3.org/1999/xlink" version="1.0" x="0px" y="0px" viewBox="0 0 100 100" enable-background="new 0 0 100 100" xml:space="preserve">
    <path d="M59.427,54.713L54.714,50l-9.428,9.428l-4.713-4.715L50,45.287l-4.714-4.716L35.859,50l-4.714-4.713l-9.43,9.426  c-5.7,5.703-6.406,14.502-2.119,20.975L10,85.283L14.714,90l9.596-9.596c6.472,4.287,15.273,3.584,20.977-2.119l9.428-9.428  L50,64.145L59.427,54.713z M40.573,73.57c-3.906,3.906-10.238,3.906-14.145,0c-3.902-3.906-3.902-10.236,0-14.143l4.714-4.715  l14.144,14.145L40.573,73.57z"/>
    <path d="M90,14.713L85.286,10l-9.596,9.596c-6.472-4.287-15.273-3.582-20.977,2.119l-9.428,9.429l23.571,23.569l9.427-9.426  c5.703-5.703,6.41-14.504,2.119-20.976L90,14.713z M68.857,45.287L54.714,31.143l4.713-4.713c3.906-3.905,10.238-3.905,14.145,0  c3.906,3.906,3.906,10.236,0,14.142L68.857,45.287z"/>
</svg>